# xmcd
#
# Track frame offsets:
#	150
#	7266
#	20674
#	32927
#	39330
#	48110
#	57325
#	64561
#	71871
#	77647
#	83724
#	89690
#	95396
#
# Disc length: 1304 seconds
#
# Revision: 1
# Processed by: cddbd v1.5.1PL0 Copyright (c) Steve Scherf et al.
# Submitted via: audiograbber 1.83.01
#
DISCID=a705160d
DTITLE=Keith Wyatt - Blues Solos for Guitar
DYEAR=2000
DGENRE=Blues
TTITLE0=Blues Number One
TTITLE1=Blues Number One - Jam Track
TTITLE2=Memphis Funk
TTITLE3=Memphis Funk - Jam Track
TTITLE4=Boogie Shuffle
TTITLE5=Boogie Shuffle - Jam Track
TTITLE6=Freddie King Thing
TTITLE7=Freddie King Thing - Jam Track
TTITLE8=Texas Swing Blues
TTITLE9=Texas Swing Blues - Jam Track
TTITLE10=Rockabilly
TTITLE11=Rockabilly - Jam Track
TTITLE12=Tuning
EXTD=
EXTT0=
EXTT1=
EXTT2=
EXTT3=
EXTT4=
EXTT5=
EXTT6=
EXTT7=
EXTT8=
EXTT9=
EXTT10=
EXTT11=
EXTT12=
PLAYORDER=
